<svg width="26" height="26" viewBox="0 0 26 26" fill="none" xmlns="http://www.w3.org/2000/svg">
<path d="M21.126 21.9667C20.1944 20.7332 18.989 19.7328 17.6049 19.0445C16.2208 18.3562 14.6958 17.9986 13.15 18C11.6042 17.9986 10.0792 18.3562 8.69511 19.0445C7.31102 19.7328 6.10567 20.7332 5.17402 21.9667M21.126 21.9667C22.944 20.3496 24.2262 18.2181 24.8049 15.8548C25.3837 13.4915 25.2304 11.0081 24.3653 8.73397C23.5002 6.45983 21.9643 4.50237 19.9612 3.1212C17.9581 1.74003 15.5825 1.0004 13.1494 1.0004C10.7162 1.0004 8.3406 1.74003 6.33749 3.1212C4.33439 4.50237 2.79846 6.45983 1.9334 8.73397C1.06834 11.0081 0.915024 13.4915 1.49378 15.8548C2.07254 18.2181 3.35602 20.3496 5.17402 21.9667M21.126 21.9667C18.9314 23.9242 16.0909 25.0042 13.15 25C10.2087 25.0045 7.369 23.9245 5.17402 21.9667M17.15 10C17.15 11.0609 16.7286 12.0783 15.9784 12.8284C15.2283 13.5786 14.2109 14 13.15 14C12.0892 14 11.0717 13.5786 10.3216 12.8284C9.57145 12.0783 9.15002 11.0609 9.15002 10C9.15002 8.93914 9.57145 7.92172 10.3216 7.17158C11.0717 6.42143 12.0892 6 13.15 6C14.2109 6 15.2283 6.42143 15.9784 7.17158C16.7286 7.92172 17.15 8.93914 17.15 10Z" stroke="#EFD1EF" stroke-opacity="0.5" stroke-linecap="round" stroke-linejoin="round"/>
</svg>
